<?xml version="1.0" encoding="UTF-8" standalone="no"?>
<svg
   xmlns:dc="http://purl.org/dc/elements/1.1/"
   xmlns:cc="http://creativecommons.org/ns#"
   xmlns:rdf="http://www.w3.org/1999/02/22-rdf-syntax-ns#"
   xmlns:svg="http://www.w3.org/2000/svg"
   xmlns="http://www.w3.org/2000/svg"
   xmlns:sodipodi="http://sodipodi.sourceforge.net/DTD/sodipodi-0.dtd"
   xmlns:inkscape="http://www.inkscape.org/namespaces/inkscape"
   width="50.5"
   height="18"
   viewBox="0 0 50.5 18"
   version="1.1"
   id="svg12"
   sodipodi:docname="system.svg"
   inkscape:version="0.92.3 (2405546, 2018-03-11)">
  <metadata
     id="metadata16">
    <rdf:RDF>
      <cc:Work
         rdf:about="">
        <dc:format>image/svg+xml</dc:format>
        <dc:type
           rdf:resource="http://purl.org/dc/dcmitype/StillImage" />
        <dc:title>system</dc:title>
      </cc:Work>
    </rdf:RDF>
  </metadata>
  <sodipodi:namedview
     pagecolor="#ffffff"
     bordercolor="#666666"
     borderopacity="1"
     objecttolerance="10"
     gridtolerance="10"
     guidetolerance="10"
     inkscape:pageopacity="0"
     inkscape:pageshadow="2"
     inkscape:window-width="1870"
     inkscape:window-height="1021"
     id="namedview14"
     showgrid="false"
     inkscape:zoom="19.072"
     inkscape:cx="36.147929"
     inkscape:cy="10.125314"
     inkscape:window-x="50"
     inkscape:window-y="31"
     inkscape:window-maximized="1"
     inkscape:current-layer="svg12" />
  <!-- Generator: Sketch 45 (43475) - http://www.bohemiancoding.com/sketch -->
  <title
     id="title2">system</title>
  <desc
     id="desc4">Created with Sketch.</desc>
  <defs
     id="defs6" />
  <g
     id="Page-1"
     style="fill:none;fill-rule:evenodd;stroke:none;stroke-width:1">
    <g
       id="system"
       style="stroke:#867740;stroke-linecap:round">
      <path
         d="m 0.5,17.5 4,-17"
         id="Shape"
         inkscape:connector-curvature="0" />
    </g>
    <g
       aria-label="SG-1000"
       style="font-style:normal;font-weight:normal;font-size:40px;line-height:0%;font-family:sans-serif;letter-spacing:0px;word-spacing:0px;fill:#ffffff;fill-opacity:1;stroke:none;stroke-width:1px;stroke-linecap:butt;stroke-linejoin:miter;stroke-opacity:1"
       id="text827" />
  </g>
  <g
     aria-label="RADIO"
     style="font-style:normal;font-weight:normal;font-size:40px;line-height:0%;font-family:sans-serif;letter-spacing:0px;word-spacing:0px;fill:#ffffff;fill-opacity:1;stroke:none;stroke-width:1px;stroke-linecap:butt;stroke-linejoin:miter;stroke-opacity:1"
     id="text828">
    <path
       d="m 16.0799,13.977771 h -1.862 l -2.03,-3.64 h -1.82 v 3.64 H 8.5759 V 4.1777708 h 3.584 q 3.374,0 3.374,2.828 0,1.05 -0.434,1.708 -0.434,0.658 -1.232,1.148 z m -4.326,-8.3020002 h -1.386 v 2.982 h 1.316 q 1.134,0 1.554,-0.392 0.42,-0.392 0.42,-1.134 0,-0.742 -0.406,-1.092 -0.406,-0.364 -1.498,-0.364 z"
       style="font-style:normal;font-variant:normal;font-weight:bold;font-stretch:normal;font-size:14px;font-family:Cabin;-inkscape-font-specification:'Cabin Bold';fill:#ffffff"
       id="path906" />
    <path
       d="m 24.983244,13.977771 h -1.862 l -0.84,-2.366 h -3.262 l -0.84,2.366 h -1.862 l 3.486,-9.8000002 h 1.694 z m -3.318,-4.1020002 -1.022,-2.87 -1.008,2.87 z"
       style="font-style:normal;font-variant:normal;font-weight:bold;font-stretch:normal;font-size:14px;font-family:Cabin;-inkscape-font-specification:'Cabin Bold';fill:#ffffff"
       id="path908" />
    <path
       d="m 29.771244,13.977771 h -3.668 V 4.1777708 h 3.668 q 2.142,0 3.486,1.316 1.344,1.316 1.344,3.584 0,2.2680002 -1.344,3.5840002 -1.344,1.316 -3.486,1.316 z m 0,-8.0780002 h -1.876 v 6.3560002 h 1.876 q 1.4,0 2.128,-0.84 0.742,-0.84 0.742,-2.3380002 0,-1.498 -0.742,-2.338 -0.728,-0.84 -2.128,-0.84 z"
       style="font-style:normal;font-variant:normal;font-weight:bold;font-stretch:normal;font-size:14px;font-family:Cabin;-inkscape-font-specification:'Cabin Bold';fill:#ffffff"
       id="path910" />
    <path
       d="m 37.985088,13.977771 h -1.792 V 4.1777708 h 1.792 z"
       style="font-style:normal;font-variant:normal;font-weight:bold;font-stretch:normal;font-size:14px;font-family:Cabin;-inkscape-font-specification:'Cabin Bold';fill:#ffffff"
       id="path912" />
    <path
       d="m 47.844588,12.773771 q -1.344,1.4 -3.472,1.4 -2.128,0 -3.486,-1.4 -1.344,-1.414 -1.344,-3.6960002 0,-2.282 1.344,-3.682 1.358,-1.414 3.486,-1.414 2.128,0 3.472,1.414 1.358,1.4 1.358,3.682 0,2.2820002 -1.358,3.6960002 z m -1.344,-6.1460002 q -0.742,-0.924 -2.128,-0.924 -1.386,0 -2.128,0.924 -0.742,0.924 -0.742,2.45 0,1.5260002 0.742,2.4500002 0.742,0.924 2.128,0.924 1.386,0 2.128,-0.924 0.742,-0.924 0.742,-2.4500002 0,-1.526 -0.742,-2.45 z"
       style="font-style:normal;font-variant:normal;font-weight:bold;font-stretch:normal;font-size:14px;font-family:Cabin;-inkscape-font-specification:'Cabin Bold';fill:#ffffff"
       id="path914" />
  </g>
</svg>
