<?xml version="1.0" encoding="UTF-8" standalone="no"?>
<svg
   xmlns:dc="http://purl.org/dc/elements/1.1/"
   xmlns:cc="http://creativecommons.org/ns#"
   xmlns:rdf="http://www.w3.org/1999/02/22-rdf-syntax-ns#"
   xmlns:svg="http://www.w3.org/2000/svg"
   xmlns="http://www.w3.org/2000/svg"
   xmlns:sodipodi="http://sodipodi.sourceforge.net/DTD/sodipodi-0.dtd"
   xmlns:inkscape="http://www.inkscape.org/namespaces/inkscape"
   width="58"
   height="18"
   viewBox="0 0 58 18"
   version="1.1"
   id="svg12"
   sodipodi:docname="system.svg"
   inkscape:version="0.92.3 (2405546, 2018-03-11)">
  <metadata
     id="metadata16">
    <rdf:RDF>
      <cc:Work
         rdf:about="">
        <dc:format>image/svg+xml</dc:format>
        <dc:type
           rdf:resource="http://purl.org/dc/dcmitype/StillImage" />
        <dc:title>system</dc:title>
      </cc:Work>
    </rdf:RDF>
  </metadata>
  <sodipodi:namedview
     pagecolor="#ffffff"
     bordercolor="#666666"
     borderopacity="1"
     objecttolerance="10"
     gridtolerance="10"
     guidetolerance="10"
     inkscape:pageopacity="0"
     inkscape:pageshadow="2"
     inkscape:window-width="1870"
     inkscape:window-height="1021"
     id="namedview14"
     showgrid="false"
     inkscape:zoom="19.072"
     inkscape:cx="36.147929"
     inkscape:cy="10.125314"
     inkscape:window-x="50"
     inkscape:window-y="31"
     inkscape:window-maximized="1"
     inkscape:current-layer="svg12" />
  <!-- Generator: Sketch 45 (43475) - http://www.bohemiancoding.com/sketch -->
  <title
     id="title2">system</title>
  <desc
     id="desc4">Created with Sketch.</desc>
  <defs
     id="defs6" />
  <g
     id="Page-1"
     style="fill:none;fill-rule:evenodd;stroke:none;stroke-width:1">
    <g
       id="system"
       style="stroke:#867740;stroke-linecap:round">
      <path
         d="m 0.5,17.5 4,-17"
         id="Shape"
         inkscape:connector-curvature="0" />
    </g>
    <g
       aria-label="SG-1000"
       style="font-style:normal;font-weight:normal;font-size:40px;line-height:0%;font-family:sans-serif;letter-spacing:0px;word-spacing:0px;fill:#ffffff;fill-opacity:1;stroke:none;stroke-width:1px;stroke-linecap:butt;stroke-linejoin:miter;stroke-opacity:1"
       id="text827" />
  </g>
  <g
     aria-label="POWER"
     style="font-style:normal;font-weight:normal;font-size:40px;line-height:0%;font-family:sans-serif;letter-spacing:0px;word-spacing:0px;fill:#ffffff;fill-opacity:1;stroke:none;stroke-width:1px;stroke-linecap:butt;stroke-linejoin:miter;stroke-opacity:1"
     id="text828">
    <path
       d="m 12.1179,10.757771 h -1.75 v 3.22 H 8.5759 V 4.1777708 h 2.772 q 1.106,0 1.806,0.112 0.714,0.112 1.288,0.434 0.588,0.322 0.84,0.952 0.266,0.616 0.266,1.61 0,0.994 -0.336,1.722 -0.322,0.714 -0.868,1.0780002 -0.546,0.364 -1.092,0.518 -0.546,0.154 -1.134,0.154 z m -0.28,-5.0820002 h -1.47 v 3.402 h 1.512 q 0.994,0 1.414,-0.392 0.434,-0.406 0.434,-1.386 0,-0.868 -0.406,-1.246 -0.392,-0.378 -1.484,-0.378 z"
       style="font-style:normal;font-variant:normal;font-weight:bold;font-stretch:normal;font-size:14px;font-family:Cabin;-inkscape-font-specification:'Cabin Bold';fill:#ffffff"
       id="path1046" />
    <path
       d="m 24.629744,12.773771 q -1.344,1.4 -3.472,1.4 -2.128,0 -3.486,-1.4 -1.344,-1.414 -1.344,-3.6960002 0,-2.282 1.344,-3.682 1.358,-1.414 3.486,-1.414 2.128,0 3.472,1.414 1.358,1.4 1.358,3.682 0,2.2820002 -1.358,3.6960002 z m -1.344,-6.1460002 q -0.742,-0.924 -2.128,-0.924 -1.386,0 -2.128,0.924 -0.742,0.924 -0.742,2.45 0,1.5260002 0.742,2.4500002 0.742,0.924 2.128,0.924 1.386,0 2.128,-0.924 0.742,-0.924 0.742,-2.4500002 0,-1.526 -0.742,-2.45 z"
       style="font-style:normal;font-variant:normal;font-weight:bold;font-stretch:normal;font-size:14px;font-family:Cabin;-inkscape-font-specification:'Cabin Bold';fill:#ffffff"
       id="path1048" />
    <path
       d="m 39.763088,4.1777708 -2.87,9.8000002 h -1.582 l -2.184,-6.5380002 -2.17,6.5380002 h -1.694 l -2.758,-9.8000002 h 1.862 l 1.96,6.9580002 2.184,-6.9580002 h 1.246 l 2.268,6.7760002 1.876,-6.7760002 z"
       style="font-style:normal;font-variant:normal;font-weight:bold;font-stretch:normal;font-size:14px;font-family:Cabin;-inkscape-font-specification:'Cabin Bold';fill:#ffffff"
       id="path1050" />
    <path
       d="m 47.335556,13.977771 h -6.412 V 4.1777708 h 6.272 v 1.736 h -4.438 v 2.086 h 3.444 v 1.736 h -3.444 v 2.5060002 h 4.578 z"
       style="font-style:normal;font-variant:normal;font-weight:bold;font-stretch:normal;font-size:14px;font-family:Cabin;-inkscape-font-specification:'Cabin Bold';fill:#ffffff"
       id="path1052" />
    <path
       d="m 56.384588,13.977771 h -1.862 l -2.03,-3.64 h -1.82 v 3.64 h -1.792 V 4.1777708 h 3.584 q 3.374,0 3.374,2.828 0,1.05 -0.434,1.708 -0.434,0.658 -1.232,1.148 z m -4.326,-8.3020002 h -1.386 v 2.982 h 1.316 q 1.134,0 1.554,-0.392 0.42,-0.392 0.42,-1.134 0,-0.742 -0.406,-1.092 -0.406,-0.364 -1.498,-0.364 z"
       style="font-style:normal;font-variant:normal;font-weight:bold;font-stretch:normal;font-size:14px;font-family:Cabin;-inkscape-font-specification:'Cabin Bold';fill:#ffffff"
       id="path1054" />
  </g>
</svg>
