<?xml version="1.0" encoding="UTF-8" standalone="no"?>
<svg
   xmlns:dc="http://purl.org/dc/elements/1.1/"
   xmlns:cc="http://creativecommons.org/ns#"
   xmlns:rdf="http://www.w3.org/1999/02/22-rdf-syntax-ns#"
   xmlns:svg="http://www.w3.org/2000/svg"
   xmlns="http://www.w3.org/2000/svg"
   xmlns:sodipodi="http://sodipodi.sourceforge.net/DTD/sodipodi-0.dtd"
   xmlns:inkscape="http://www.inkscape.org/namespaces/inkscape"
   width="66.5"
   height="18"
   viewBox="0 0 66.5 18"
   version="1.1"
   id="svg12"
   sodipodi:docname="system.svg"
   inkscape:version="0.92.3 (2405546, 2018-03-11)">
  <metadata
     id="metadata16">
    <rdf:RDF>
      <cc:Work
         rdf:about="">
        <dc:format>image/svg+xml</dc:format>
        <dc:type
           rdf:resource="http://purl.org/dc/dcmitype/StillImage" />
        <dc:title>system</dc:title>
      </cc:Work>
    </rdf:RDF>
  </metadata>
  <sodipodi:namedview
     pagecolor="#ffffff"
     bordercolor="#666666"
     borderopacity="1"
     objecttolerance="10"
     gridtolerance="10"
     guidetolerance="10"
     inkscape:pageopacity="0"
     inkscape:pageshadow="2"
     inkscape:window-width="1870"
     inkscape:window-height="1021"
     id="namedview14"
     showgrid="false"
     inkscape:zoom="9.536"
     inkscape:cx="39.096986"
     inkscape:cy="-3.1895535"
     inkscape:window-x="50"
     inkscape:window-y="31"
     inkscape:window-maximized="1"
     inkscape:current-layer="svg12" />
  <!-- Generator: Sketch 45 (43475) - http://www.bohemiancoding.com/sketch -->
  <title
     id="title2">system</title>
  <desc
     id="desc4">Created with Sketch.</desc>
  <defs
     id="defs6" />
  <g
     id="Page-1"
     style="fill:none;fill-rule:evenodd;stroke:none;stroke-width:1">
    <g
       id="system"
       style="stroke:#867740;stroke-linecap:round">
      <path
         d="m 0.5,17.5 4,-17"
         id="Shape"
         inkscape:connector-curvature="0" />
    </g>
    <g
       aria-label="SG-1000"
       style="font-style:normal;font-weight:normal;font-size:40px;line-height:0%;font-family:sans-serif;letter-spacing:0px;word-spacing:0px;fill:#ffffff;fill-opacity:1;stroke:none;stroke-width:1px;stroke-linecap:butt;stroke-linejoin:miter;stroke-opacity:1"
       id="text827">
      <path
         d="m 11.893349,14.173067 q -1.05,0 -1.9179999,-0.21 -0.868,-0.21 -1.33,-0.504 l 0.21,-2.044 q 0.448,0.434 1.2459999,0.742 0.812,0.294 1.834,0.294 1.75,0 1.75,-1.064 0,-0.294 -0.14,-0.532 -0.14,-0.238 -0.308,-0.392 -0.154,-0.154 -0.532,-0.322 -0.378,-0.182 -0.588,-0.252 -0.21,-0.084 -0.714,-0.252 -0.434,-0.14 -0.602,-0.21 l -0.56,-0.238 q -0.3919999,-0.154 -0.5739999,-0.266 -0.182,-0.126 -0.448,-0.336 -0.266,-0.224 -0.392,-0.448 -0.126,-0.224 -0.224,-0.532 -0.098,-0.322 -0.098,-0.686 0,-1.148 0.868,-2.044 0.8679999,-0.896 2.6739999,-0.896 0.938,0 1.806,0.238 0.882,0.238 1.316,0.518 l -0.182,1.834 q -1.61,-0.882 -2.87,-0.882 -0.714,0 -1.26,0.238 -0.532,0.238 -0.532,0.798 0,0.532 0.49,0.826 0.49,0.28 1.484,0.588 0.518,0.154 0.784,0.252 0.28,0.098 0.756,0.294 0.476,0.196 0.742,0.42 0.266,0.21 0.546,0.532 0.294,0.308 0.42,0.742 0.14,0.42 0.14,0.938 0,0.392 -0.07,0.742 -0.07,0.336 -0.322,0.742 -0.238,0.406 -0.644,0.7 -0.392,0.28 -1.106,0.476 -0.7,0.196 -1.652,0.196 z"
         style="font-style:normal;font-variant:normal;font-weight:normal;font-stretch:normal;font-size:14px;font-family:Cabin;-inkscape-font-specification:Cabin;fill:#ffffff"
         id="path820"
         inkscape:connector-curvature="0" />
      <path
         d="m 21.372443,14.173067 q -2.086,0 -3.444,-1.4 -1.344,-1.414 -1.344,-3.71 0,-2.282 1.358,-3.682 1.358,-1.4 3.528,-1.4 0.742,0 1.582,0.168 0.84,0.154 1.358,0.406 l -0.196,1.708 q -1.372,-0.56 -2.702,-0.56 -1.47,0 -2.226,0.924 -0.742,0.91 -0.742,2.408 0,1.554 0.784,2.492 0.784,0.924 2.268,0.924 0.602,0 1.344,-0.154 v -1.75 h -1.078 v -1.484 h 2.87 v 4.368 q -0.532,0.308 -1.526,0.532 -0.994,0.21 -1.834,0.21 z"
         style="font-style:normal;font-variant:normal;font-weight:normal;font-stretch:normal;font-size:14px;font-family:Cabin;-inkscape-font-specification:Cabin;fill:#ffffff"
         id="path822"
         inkscape:connector-curvature="0" />
      <path
         d="m 30.487318,10.757067 h -4.34 v -1.316 h 4.34 z"
         style="font-style:normal;font-variant:normal;font-weight:normal;font-stretch:normal;font-size:14px;font-family:Cabin;-inkscape-font-specification:Cabin;fill:#ffffff"
         id="path824"
         inkscape:connector-curvature="0" />
      <path
         d="m 35.05088,13.977067 h -1.792 v -7.266 q -0.588,0.392 -1.232,0.504 l -0.154,-1.512 q 0.462,-0.098 1.036,-0.56 0.574,-0.476 0.77,-0.966 h 1.372 z"
         style="font-style:normal;font-variant:normal;font-weight:normal;font-stretch:normal;font-size:14px;font-family:Cabin;-inkscape-font-specification:Cabin;fill:#ffffff"
         id="path826"
         inkscape:connector-curvature="0" />
      <path
         d="m 41.268849,14.173067 q -1.82,0 -2.926,-1.358 -1.106,-1.358 -1.106,-3.584 0,-2.31 1.204,-3.78 1.204,-1.47 2.996,-1.47 1.75,0 2.884,1.414 1.148,1.4 1.148,3.598 0,2.338 -1.148,3.766 -1.148,1.414 -3.052,1.414 z m 0.14,-8.61 q -0.98,0 -1.68,0.952 -0.7,0.952 -0.7,2.716 0,1.68 0.616,2.506 0.63,0.826 1.652,0.826 1.092,0 1.75,-0.868 0.658,-0.882 0.658,-2.702 0,-1.652 -0.672,-2.534 -0.658,-0.896 -1.624,-0.896 z"
         style="font-style:normal;font-variant:normal;font-weight:normal;font-stretch:normal;font-size:14px;font-family:Cabin;-inkscape-font-specification:Cabin;fill:#ffffff"
         id="path828"
         inkscape:connector-curvature="0" />
      <path
         d="m 51.139943,14.173067 q -1.82,0 -2.926,-1.358 -1.106,-1.358 -1.106,-3.584 0,-2.31 1.204,-3.78 1.204,-1.47 2.996,-1.47 1.75,0 2.884,1.414 1.148,1.4 1.148,3.598 0,2.338 -1.148,3.766 -1.148,1.414 -3.052,1.414 z m 0.14,-8.61 q -0.98,0 -1.68,0.952 -0.7,0.952 -0.7,2.716 0,1.68 0.616,2.506 0.63,0.826 1.652,0.826 1.092,0 1.75,-0.868 0.658,-0.882 0.658,-2.702 0,-1.652 -0.672,-2.534 -0.658,-0.896 -1.624,-0.896 z"
         style="font-style:normal;font-variant:normal;font-weight:normal;font-stretch:normal;font-size:14px;font-family:Cabin;-inkscape-font-specification:Cabin;fill:#ffffff"
         id="path830"
         inkscape:connector-curvature="0" />
      <path
         d="m 61.011037,14.173067 q -1.82,0 -2.926,-1.358 -1.106,-1.358 -1.106,-3.584 0,-2.31 1.204,-3.78 1.204,-1.47 2.996,-1.47 1.75,0 2.884,1.414 1.148,1.4 1.148,3.598 0,2.338 -1.148,3.766 -1.148,1.414 -3.052,1.414 z m 0.14,-8.61 q -0.98,0 -1.68,0.952 -0.7,0.952 -0.7,2.716 0,1.68 0.616,2.506 0.63,0.826 1.652,0.826 1.092,0 1.75,-0.868 0.658,-0.882 0.658,-2.702 0,-1.652 -0.672,-2.534 -0.658,-0.896 -1.624,-0.896 z"
         style="font-style:normal;font-variant:normal;font-weight:normal;font-stretch:normal;font-size:14px;font-family:Cabin;-inkscape-font-specification:Cabin;fill:#ffffff"
         id="path832"
         inkscape:connector-curvature="0" />
    </g>
  </g>
</svg>
