<?xml version="1.0" encoding="UTF-8" standalone="no"?>
<svg
   xmlns:dc="http://purl.org/dc/elements/1.1/"
   xmlns:cc="http://creativecommons.org/ns#"
   xmlns:rdf="http://www.w3.org/1999/02/22-rdf-syntax-ns#"
   xmlns:svg="http://www.w3.org/2000/svg"
   xmlns="http://www.w3.org/2000/svg"
   xmlns:sodipodi="http://sodipodi.sourceforge.net/DTD/sodipodi-0.dtd"
   xmlns:inkscape="http://www.inkscape.org/namespaces/inkscape"
   width="110"
   height="18"
   viewBox="0 0 110 18"
   version="1.1"
   id="svg15"
   sodipodi:docname="system.svg"
   inkscape:version="0.92.3 (2405546, 2018-03-11)">
  <metadata
     id="metadata19">
    <rdf:RDF>
      <cc:Work
         rdf:about="">
        <dc:format>image/svg+xml</dc:format>
        <dc:type
           rdf:resource="http://purl.org/dc/dcmitype/StillImage" />
        <dc:title>system</dc:title>
      </cc:Work>
    </rdf:RDF>
  </metadata>
  <sodipodi:namedview
     pagecolor="#ffffff"
     bordercolor="#666666"
     borderopacity="1"
     objecttolerance="10"
     gridtolerance="10"
     guidetolerance="10"
     inkscape:pageopacity="0"
     inkscape:pageshadow="2"
     inkscape:window-width="933"
     inkscape:window-height="1018"
     id="namedview17"
     showgrid="false"
     inkscape:zoom="3.9021819"
     inkscape:cx="60.170418"
     inkscape:cy="14.992445"
     inkscape:window-x="985"
     inkscape:window-y="31"
     inkscape:window-maximized="0"
     inkscape:current-layer="svg15" />
  <!-- Generator: Sketch 45 (43475) - http://www.bohemiancoding.com/sketch -->
  <title
     id="title2">system</title>
  <desc
     id="desc4">Created with Sketch.</desc>
  <defs
     id="defs6" />
  <g
     id="Page-1"
     style="fill:none;fill-rule:evenodd;stroke:none;stroke-width:1">
    <g
       id="system">
      <path
         d="m 0.5,17.5 4,-17"
         id="Shape"
         inkscape:connector-curvature="0"
         style="stroke:#867740;stroke-linecap:round" />
      <path
         d="M 14.902,14 H 9.078 V 4.2 h 1.792 v 8.064 h 4.032 z m 8.806,0 h -1.862 l -0.84,-2.366 H 17.744 L 16.904,14 h -1.862 l 3.486,-9.8 h 1.694 z M 20.39,9.898 19.368,7.028 18.36,9.898 Z m 7.28,4.298 c -0.700004,0 -1.33933,-0.07 -1.918,-0.21 -0.57867,-0.140001 -1.021999,-0.307999 -1.33,-0.504 l 0.21,-2.044 c 0.298668,0.289335 0.716331,0.534332 1.253,0.735 0.536669,0.200668 1.145663,0.301 1.827,0.301 1.166672,0 1.75,-0.354663 1.75,-1.064 0,-0.196001 -0.04667,-0.373332 -0.14,-0.532 C 29.22867,10.719333 29.128334,10.588667 29.021,10.486 28.913666,10.383333 28.734001,10.273667 28.482,10.157 28.229999,10.040333 28.034001,9.9563336 27.894,9.905 27.753999,9.8536664 27.516002,9.7720006 27.18,9.66 26.890665,9.5666662 26.690001,9.4966669 26.578,9.45 L 26.018,9.212 C 25.756665,9.1093328 25.565334,9.0183337 25.444,8.939 25.322666,8.8596663 25.173334,8.7476674 24.996,8.603 24.818666,8.4583326 24.688,8.3113341 24.604,8.162 24.52,8.0126659 24.445334,7.833001 24.38,7.623 24.314666,7.412999 24.282,7.1866679 24.282,6.944 c 0,-0.7653372 0.28933,-1.4466637 0.868,-2.044 0.57867,-0.5973363 1.469994,-0.896 2.674,-0.896 0.625336,0 1.229664,0.079333 1.813,0.238 0.583336,0.1586675 1.019665,0.3313324 1.309,0.518 l -0.182,1.834 c -1.073339,-0.5880029 -2.029996,-0.882 -2.87,-0.882 -0.476002,0 -0.893665,0.079333 -1.253,0.238 -0.359335,0.1586675 -0.539,0.4246648 -0.539,0.798 0,0.3546684 0.163332,0.6276657 0.49,0.819 0.326668,0.1913343 0.82133,0.3896656 1.484,0.595 0.345335,0.1026672 0.608999,0.1866663 0.791,0.252 0.182001,0.065334 0.431665,0.1633327 0.749,0.294 0.317335,0.1306673 0.564666,0.2683326 0.742,0.413 0.177334,0.1446674 0.361666,0.321999 0.553,0.532 0.191334,0.210001 0.331333,0.457332 0.42,0.742 0.08867,0.284668 0.133,0.599665 0.133,0.945 0,0.261335 -0.02333,0.506332 -0.07,0.735 -0.04667,0.228668 -0.151666,0.478332 -0.315,0.749 -0.163334,0.270668 -0.377999,0.501666 -0.644,0.693 -0.266001,0.191334 -0.634664,0.352333 -1.106,0.483 -0.471336,0.130667 -1.02433,0.196 -1.659,0.196 z M 39.416,5.936 H 36.644 V 14 H 34.852 V 5.936 H 32.08 V 4.2 h 7.336 z m 7.98,4.844 h -1.75 V 14 H 43.854 V 4.2 h 2.772 c 0.737337,0 1.341664,0.037333 1.813,0.112 0.471336,0.074667 0.900665,0.2193323 1.288,0.434 0.387335,0.2146677 0.667332,0.5296646 0.84,0.945 0.172668,0.4153354 0.259,0.95433 0.259,1.617 0,0.66267 -0.109666,1.2343309 -0.329,1.715 -0.219334,0.4806691 -0.510998,0.8423321 -0.875,1.085 -0.364002,0.242668 -0.727998,0.415333 -1.092,0.518 -0.364002,0.102667 -0.741998,0.154 -1.134,0.154 z m -0.28,-5.082 h -1.47 V 9.1 h 1.512 c 0.66267,0 1.136332,-0.1329987 1.421,-0.399 0.284668,-0.2660013 0.427,-0.7256634 0.427,-1.379 0,-0.5786696 -0.132999,-0.9939987 -0.399,-1.246 C 48.340999,5.8239987 47.844004,5.698 47.116,5.698 Z M 58.022,14 H 52.198 V 4.2 h 1.792 v 8.064 h 4.032 z m 8.806,0 h -1.862 l -0.84,-2.366 H 60.864 L 60.024,14 h -1.862 l 3.486,-9.8 h 1.694 z M 63.51,9.898 62.488,7.028 61.48,9.898 Z M 74.444,4.2 71.056,9.66 V 14 H 69.264 V 9.66 L 65.876,4.2 H 67.78 L 70.16,8.064 72.54,4.2 Z M 81.836,14 H 75.424 V 4.2 h 6.272 v 1.736 h -4.438 v 2.086 h 3.444 v 1.736 h -3.444 v 2.506 h 4.578 z m 5.208,0 H 83.376 V 4.2 h 3.668 c 1.428007,0 2.589995,0.4386623 3.486,1.316 0.896005,0.8773377 1.344,2.0719924 1.344,3.584 0,1.512008 -0.447995,2.706662 -1.344,3.584 C 89.633995,13.561338 88.472007,14 87.044,14 Z m 0,-8.078 h -1.876 v 6.356 h 1.876 c 0.933338,0 1.644997,-0.279997 2.135,-0.84 0.490003,-0.560003 0.735,-1.339328 0.735,-2.338 0,-0.9986717 -0.244997,-1.7779972 -0.735,-2.338 -0.490003,-0.5600028 -1.201662,-0.84 -2.135,-0.84 z"
         id="LAST-PLAYED-Copy"
         inkscape:connector-curvature="0"
         style="fill:#ffffff" />
      <g
         id="Group"
         transform="translate(94,3)"
         style="fill:#bba358;fill-rule:nonzero">
        <path
           d="m 9.3876895,0.08286127 c -2.909283,0 -5.3366595,2.06915443 -5.891297,4.81653003 H 2.4304794 c -0.047128,6.9e-6 -0.090209,0.026635 -0.1112893,0.068786 -0.02108,0.042151 -0.016542,0.092593 0.011724,0.1303047 l 1.60551,2.14068 c 0.023503,0.031341 0.060391,0.049787 0.099565,0.049787 0.039175,0 0.076063,-0.018446 0.099566,-0.049787 l 1.60551,-2.14068 C 5.7693299,5.060771 5.7738689,5.010328 5.7527889,4.9681773 5.7317089,4.9260263 5.6886279,4.8993983 5.6414996,4.8993913 H 4.853296 c 0.5290406,-2.011631 2.3553128,-3.4972966 4.5343935,-3.4972966 2.5931035,0 4.6920835,2.0989803 4.6920835,4.6920834 0,2.5931031 -2.09898,4.6920839 -4.6920835,4.6920839 -1.6264633,0 -3.0582109,-0.8268351 -3.9002317,-2.0828023 -0.023104,-0.034478 -0.061874,-0.05517 -0.1033776,-0.055173 H 4.144081 c -0.043331,1.22e-5 -0.083536,0.022562 -0.1061401,0.05953 -0.022604,0.036968 -0.024352,0.083032 -0.00462,0.1216067 0.9957502,1.9450356 3.0202998,3.2760716 5.3543644,3.2760716 3.3184027,0 6.0113167,-2.6929142 6.0113167,-6.0113167 0,-3.318423 -2.692914,-6.01131683 -6.0113167,-6.01131683 z"
           id="path4921"
           inkscape:connector-curvature="0"
           sodipodi:nodetypes="cccsccscccccssscccccsscc" />
        <path
           d="m 6.9881859,2.6889048 c -0.09936,10e-8 -0.1799066,0.080547 -0.1799068,0.1799067 v 3.9163819 c 6.6e-6,0.0637 0.033698,0.1226482 0.08858,0.1549846 L 9.6856376,8.583645 C 9.7712046,8.63406 9.8814369,8.605602 9.9319075,8.520069 L 10.203797,8.0592966 c 0.05035,-0.085363 0.02218,-0.1953668 -0.063,-0.2460242 L 7.7032626,6.3638946 V 2.8688115 c -1e-7,-0.09936 -0.080547,-0.1799066 -0.1799067,-0.1799067 z"
           id="polygon4923"
           inkscape:connector-curvature="0" />
      </g>
    </g>
  </g>
</svg>
