<?xml version="1.0" encoding="UTF-8" standalone="no"?>
<svg
   xmlns:dc="http://purl.org/dc/elements/1.1/"
   xmlns:cc="http://creativecommons.org/ns#"
   xmlns:rdf="http://www.w3.org/1999/02/22-rdf-syntax-ns#"
   xmlns:svg="http://www.w3.org/2000/svg"
   xmlns="http://www.w3.org/2000/svg"
   xmlns:sodipodi="http://sodipodi.sourceforge.net/DTD/sodipodi-0.dtd"
   xmlns:inkscape="http://www.inkscape.org/namespaces/inkscape"
   width="99"
   height="18"
   viewBox="0 0 99 18"
   version="1.1"
   id="svg14"
   sodipodi:docname="system.svg"
   inkscape:version="0.92.3 (2405546, 2018-03-11)">
  <metadata
     id="metadata18">
    <rdf:RDF>
      <cc:Work
         rdf:about="">
        <dc:format>image/svg+xml</dc:format>
        <dc:type
           rdf:resource="http://purl.org/dc/dcmitype/StillImage" />
        <dc:title>system</dc:title>
        <dc:title>system</dc:title>
      </cc:Work>
    </rdf:RDF>
  </metadata>
  <sodipodi:namedview
     pagecolor="#ffffff"
     bordercolor="#666666"
     borderopacity="1"
     objecttolerance="10"
     gridtolerance="10"
     guidetolerance="10"
     inkscape:pageopacity="0"
     inkscape:pageshadow="2"
     inkscape:window-width="933"
     inkscape:window-height="1018"
     id="namedview16"
     showgrid="false"
     inkscape:zoom="3.0721649"
     inkscape:cx="52.556865"
     inkscape:cy="9"
     inkscape:window-x="985"
     inkscape:window-y="31"
     inkscape:window-maximized="0"
     inkscape:current-layer="svg14" />
  <!-- Generator: Sketch 45 (43475) - http://www.bohemiancoding.com/sketch -->
  <title
     id="title2">system</title>
  <desc
     id="desc4">Created with Sketch.</desc>
  <defs
     id="defs6" />
  <g
     id="Page-1"
     style="fill:none;fill-rule:evenodd;stroke:none;stroke-width:1">
    <g
       id="system">
      <path
         d="M 91.040922,4.4824996 C 91.759264,3.5791786 92.867812,3 94.111624,3 c 2.16548,0 3.921077,1.7555016 3.921077,3.9210765 0,4.5231635 -7.00252,6.4133605 -7.00252,8.5788395 l -0.004,0.008 C 91.026284,13.096891 84,10.889681 84,6.9210765 84,4.7555016 85.755502,3 87.921076,3 c 1.259593,0 2.380498,0.5940074 3.097888,1.5170051 l 0.02196,-0.034506"
         id="Shape"
         style="fill:#b34222;fill-opacity:1;fill-rule:nonzero"
         inkscape:connector-curvature="0"
         sodipodi:nodetypes="cssccsscc" />
      <path
         d="m 0.5,17.5 4,-17"
         id="path9"
         inkscape:connector-curvature="0"
         style="stroke:#867740;stroke-linecap:round" />
      <path
         d="M 15.112,5.936 H 10.87 v 2.086 h 3.276 V 9.758 H 10.87 V 14 H 9.078 V 4.2 h 6.034 z M 23.316,14 h -1.862 l -0.84,-2.366 H 17.352 L 16.512,14 H 14.65 L 18.136,4.2 H 19.83 Z M 19.998,9.898 18.976,7.028 17.968,9.898 Z M 31.898,4.2 28.454,14 H 26.27 L 22.742,4.2 h 1.862 L 27.348,11.634 30.05,4.2 Z m 5.208,9.996 c -1.418674,0 -2.578329,-0.468995 -3.479,-1.407 -0.900671,-0.938005 -1.351,-2.167659 -1.351,-3.689 0,-1.5213409 0.450329,-2.7509953 1.351,-3.689 0.900671,-0.9380047 2.060326,-1.407 3.479,-1.407 1.418674,0 2.578329,0.4689953 3.479,1.407 0.900671,0.9380047 1.351,2.1676591 1.351,3.689 0,1.521341 -0.450329,2.750995 -1.351,3.689 -0.900671,0.938005 -2.060326,1.407 -3.479,1.407 z m 0,-8.47 c -0.924005,0 -1.633331,0.3079969 -2.128,0.924 -0.494669,0.6160031 -0.742,1.4326616 -0.742,2.45 0,1.017338 0.247331,1.833997 0.742,2.45 0.494669,0.616003 1.203995,0.924 2.128,0.924 0.924005,0 1.633331,-0.307997 2.128,-0.924 0.494669,-0.616003 0.742,-1.432662 0.742,-2.45 0,-1.0173384 -0.247331,-1.8339969 -0.742,-2.45 C 38.739331,6.0339969 38.030005,5.726 37.106,5.726 Z M 51.008,14 h -1.862 l -2.03,-3.64 h -1.82 V 14 H 43.504 V 4.2 h 3.584 c 2.249345,0 3.374,0.9426572 3.374,2.828 0,0.7000035 -0.144665,1.2693311 -0.434,1.708 -0.289335,0.4386689 -0.699997,0.8213317 -1.232,1.148 z M 46.682,5.698 H 45.296 V 8.68 h 1.316 c 0.756004,0 1.273999,-0.1306654 1.554,-0.392 0.280001,-0.2613346 0.42,-0.6393309 0.42,-1.134 0,-0.4946691 -0.135332,-0.8609988 -0.406,-1.099 C 47.909332,5.8169988 47.410004,5.698 46.682,5.698 Z M 54.06,14 H 52.268 V 4.2 H 54.06 Z M 62.684,5.936 H 59.912 V 14 H 58.12 V 5.936 H 55.348 V 4.2 h 7.336 z M 70.384,14 H 63.972 V 4.2 h 6.272 v 1.736 h -4.438 v 2.086 h 3.444 v 1.736 h -3.444 v 2.506 h 4.578 z m 4.382,0.196 c -0.700004,0 -1.33933,-0.07 -1.918,-0.21 -0.57867,-0.140001 -1.021998,-0.307999 -1.33,-0.504 l 0.21,-2.044 c 0.298668,0.289335 0.716331,0.534332 1.253,0.735 0.536669,0.200668 1.145663,0.301 1.827,0.301 1.166672,0 1.75,-0.354663 1.75,-1.064 0,-0.196001 -0.04667,-0.373332 -0.14,-0.532 C 76.32467,10.719333 76.224334,10.588667 76.117,10.486 76.009666,10.383333 75.830001,10.273667 75.578,10.157 75.325999,10.040333 75.130001,9.9563336 74.99,9.905 74.849999,9.8536664 74.612002,9.7720006 74.276,9.66 73.986665,9.5666662 73.786001,9.4966669 73.674,9.45 L 73.114,9.212 C 72.852665,9.1093328 72.661334,9.0183337 72.54,8.939 72.418666,8.8596663 72.269334,8.7476674 72.092,8.603 71.914666,8.4583326 71.784,8.3113341 71.7,8.162 71.616,8.0126659 71.541334,7.833001 71.476,7.623 71.410666,7.412999 71.378,7.1866679 71.378,6.944 c 0,-0.7653372 0.28933,-1.4466637 0.868,-2.044 0.57867,-0.5973363 1.469994,-0.896 2.674,-0.896 0.625337,0 1.229664,0.079333 1.813,0.238 0.583336,0.1586675 1.019665,0.3313324 1.309,0.518 L 77.86,6.594 C 76.786661,6.0059971 75.830004,5.712 74.99,5.712 c -0.476002,0 -0.893665,0.079333 -1.253,0.238 -0.359335,0.1586675 -0.539,0.4246648 -0.539,0.798 0,0.3546684 0.163332,0.6276657 0.49,0.819 0.326668,0.1913343 0.82133,0.3896656 1.484,0.595 0.345335,0.1026672 0.608999,0.1866663 0.791,0.252 0.182001,0.065334 0.431665,0.1633327 0.749,0.294 0.317335,0.1306673 0.564666,0.2683326 0.742,0.413 0.177334,0.1446674 0.361666,0.321999 0.553,0.532 0.191334,0.210001 0.331333,0.457332 0.42,0.742 0.08867,0.284668 0.133,0.599665 0.133,0.945 0,0.261335 -0.02333,0.506332 -0.07,0.735 -0.04667,0.228668 -0.151666,0.478332 -0.315,0.749 -0.163334,0.270668 -0.377999,0.501666 -0.644,0.693 -0.266001,0.191334 -0.634664,0.352333 -1.106,0.483 -0.471336,0.130667 -1.02433,0.196 -1.659,0.196 z"
         id="FAVORITES-Copy"
         inkscape:connector-curvature="0"
         style="fill:#ffffff" />
    </g>
  </g>
</svg>
